<svg xmlns="http://www.w3.org/2000/svg" viewBox="0 0 2482.33 2482.27"><defs><style>.cls-1{fill:#0d6efd;}.cls-2{fill:#fff;}</style></defs><g id="Livello_2" data-name="Livello 2"><g id="Livello_1-2" data-name="Livello 1"><path class="cls-1" d="M2218.08.56A282.26,282.26,0,0,0,2150,16.66c-7.07,2.71-112.89,44.48-235,92.66L1692.76,197l-23.06-9.9c-133-56.77-269.51-88.42-414.7-96-31.33-1.63-117.46-.65-146.29,1.63-107.78,8.7-201,27.73-300.39,61.45-226.88,77-427.66,223.72-573.18,419-121.92,163.57-200.56,359.35-226,562.4C2.18,1192,0,1227,0,1286.44c0,58.41,2.83,104,9.8,155.53,24.13,181.63,87.33,351.41,186.73,502.15,7.18,11,13.38,19.91,13.71,19.91s3.37-4,6.52-9c62-93.54,105.5-186.75,133.67-286.8,10.12-35.57,13.49-52.43,23.6-116.71,11.75-74.93,44.05-150.63,90.6-212.08,26.65-35.35,61.56-70.37,95.38-95.71,128.23-95.93,294.75-122.58,447.56-71.57,80.81,27.08,152.15,74.62,209.14,139.33a484.38,484.38,0,0,1,85.93,496.93c-22.08,55.79-53,105.06-94.74,150.85-38.93,42.74-92.23,82.11-145.41,107.67-49.92,23.82-89.94,35.46-157.16,45.58a693.31,693.31,0,0,0-107.67,24.36,990,990,0,0,0-223,98.86c-19.25,11.53-56.56,35.68-56.56,36.54s43.07,28.72,62,40a1193.86,1193.86,0,0,0,467.13,161.18c54.38,6.86,87.45,8.81,149,8.81s94.62-1.95,149-8.81c192.73-24,377.73-95.05,535-205.23,171.3-120.07,308.12-281.36,396.65-467.67,85.48-179.78,125.18-381.75,114-579.92A1199.31,1199.31,0,0,0,2293,807.24l-7.62-17.4,90.71-230c49.92-126.49,92.34-234.6,94.19-240.25a263.52,263.52,0,0,0,10.44-46c1.84-14.79,2.17-42.85.54-56.23C2466.05,93.44,2359.36-1.4,2236.89,0c-8.26,0-16.74.32-18.81.54Zm39,119.42c44.6,8.48,81.58,39.26,98.54,82,6,15.11,8.38,28.27,8.48,45.78s-1.95,29-7.83,45.47c-4,11.2-496.6,1256.73-501.49,1267.82-3.38,7.94-9.25,17.41-17.19,27.52-25.56,33.06-70.37,51.66-114.09,47.2-42.31-4.24-77.66-26.42-98.86-61.88-2.4-4-31-64-63.41-133s-62.54-132.25-66.78-140.3a739.13,739.13,0,0,0-273.86-290.72c-29.48-17.73-45.68-25.66-180.87-89.29C970.48,887.94,910.33,859.12,906,856.4c-48.07-29.91-70.59-89-55.47-145.41,3.16-11.75,11.1-29,18-39.15,11.2-16.54,32-34.27,50.14-42.86,9.46-4.46,1266.2-501.61,1277-505.2a149.09,149.09,0,0,1,15.22-3.8c11.1-2.07,35.56-2,46.33,0Z"/><path class="cls-2" d="M216.76,1955c-3.15,5-6.2,9-6.52,9L328.9,2112.45l189.24,159.8c0-.87,37.31-25,56.56-36.54a989.55,989.55,0,0,1,223-98.86,694.49,694.49,0,0,1,107.67-24.37c67.22-10.11,107.24-21.75,157.16-45.57,53.18-25.56,106.48-64.93,145.41-107.67,41.77-45.79,72.66-95.06,94.74-150.85a484.38,484.38,0,0,0-85.93-496.93c-57-64.71-128.33-112.25-209.14-139.33-152.81-51-319.33-24.36-447.56,71.57-33.82,25.34-68.73,60.36-95.38,95.71-46.55,61.45-78.85,137.14-90.6,212.08-10.11,64.28-13.48,81.14-23.6,116.7-28.17,100.06-71.67,193.27-133.67,286.81Z"/><path class="cls-2" d="M2257.12,120c44.6,8.48,81.58,39.26,98.54,82,6,15.12,8.38,28.27,8.48,45.79s-1.95,29-7.83,45.46c-4,11.2-496.6,1256.73-501.49,1267.82-3.38,7.94-9.25,17.41-17.19,27.52-25.56,33.06-70.37,51.66-114.09,47.2-42.31-4.24-77.66-26.42-98.86-61.88-2.4-4-31-64-63.41-133s-62.54-132.25-66.78-140.3a739.13,739.13,0,0,0-273.86-290.72c-29.48-17.73-45.68-25.66-180.87-89.29C970.48,887.94,910.33,859.12,906,856.4c-48.07-29.91-70.59-89-55.47-145.41,3.16-11.75,11.1-29,18-39.15,11.2-16.54,32-34.27,50.14-42.86,9.46-4.46,1266.2-501.61,1277-505.2a149.09,149.09,0,0,1,15.22-3.8c11.1-2.07,35.56-2,46.33,0Z"/><path class="cls-1" d="M1774.55,477.33c-99.19,9.57-177.83,86.79-189.57,186.31-1.63,13.49-.65,48,1.52,59.93,12.73,67.65,53.84,122.9,113.66,152.81a211.41,211.41,0,0,0,279-85.49c33.5-59.27,35.67-134.64,5.44-196.2a211.6,211.6,0,0,0-210-117.36Zm43.83,118.44c41.33,10.77,71.13,49.16,71.24,91.47,0,48.29-36.65,89.08-85,94.41a94.07,94.07,0,0,1-74.07-24.91c-19.69-18.38-30.13-42.2-30.13-68.74,0-25.34,8.38-46.87,25.46-64.71,15.65-16.53,33.93-26.32,55.57-29.69C1790.86,592.18,1808.37,593.16,1818.38,595.77Z"/><path class="cls-2" d="M1818.38,595.77c41.33,10.77,71.13,49.16,71.24,91.47,0,48.29-36.65,89.07-85,94.41a94.07,94.07,0,0,1-74.07-24.91c-19.69-18.38-30.13-42.2-30.13-68.74,0-25.34,8.38-46.87,25.46-64.71,15.65-16.53,33.93-26.32,55.57-29.69C1790.86,592.18,1808.37,593.16,1818.38,595.77Z"/><path class="cls-1" d="M657.36,1454.44c-35,5.55-66.24,23.5-92.13,52.75-27.41,31.22-46.54,64.28-59.06,102.13-10,30.23-14.35,56.88-14.35,89.29-.11,23.49,1.41,39.16,5.76,60.37l3.16,15.22-124.1,124.1L252.55,2022.39l10.11,12.4c17.18,21.21,35.13,42.09,50.68,59.06l6,6.42,114.09-114.09L547.5,1872.09l1.86,2.72c10.44,14.89,34.36,39.47,50.89,52.42l10.34,7.94L496.5,2049.37l-114.09,114.2,6,5.43c24.25,21.87,65.15,56.34,70.91,59.71,1.09.65,36.11-33.6,125.62-123.11l124.1-124,11.31,2.5c20.23,4.68,36.87,6.31,62.1,6.31,34.91.11,59.6-3.92,91.9-14.58a286.38,286.38,0,0,0,109.41-67.32c23.39-23.38,36.33-46.33,42.86-76.13,2.39-11,3.37-38.61,1.74-50.14-8.59-60.15-51.23-107.46-110.29-122.36-14.9-3.8-43.93-4.89-59.16-2.17a146.4,146.4,0,0,0-43.4,14.79l-12.07,6.2,4.79-8.27c17.61-30.89,22.94-71.78,13.92-107.13A145.81,145.81,0,0,0,702,1454.44c-12.62-2-32.2-2-44.59,0Zm37.74,102.78q17.28,6,25.77,23.93c3,6.42,3.37,8,3.37,17.95s-.33,11.52-3.48,18.16c-9.68,20.45-48.4,48-83.53,59.38-9.24,3-26.53,6.86-37.74,8.38-5.11.65-5.22.65-5.22-2.4,0-14.9,9.36-47.64,19.14-66.89,11.42-22.51,32.85-49,45-55.68a45.75,45.75,0,0,1,36.66-2.83Zm55,175.32c-.44.77-4.14,6.31-8,12.3-22.3,33.49-36.54,69.6-43.4,110.06-1.19,7-2.39,12.94-2.72,13.16-.76.76-18.27-9.89-27.19-16.75a188.44,188.44,0,0,1-51-58,54.42,54.42,0,0,1-3.69-7.17c.22-.12,5.43-1.1,11.74-2.07,40.79-6.64,81.68-22.95,114.09-45.35,11.86-8.27,11.42-8,10.23-6.21ZM893.69,1759c9.14,2.39,14.58,5.43,21.1,12.07a43.94,43.94,0,0,1,8.16,51.22c-3.48,7.07-16.86,20.34-30.67,30.67-23.61,17.73-60.69,32.2-88.21,34.59l-7.18.65,1-7.5a187.25,187.25,0,0,1,28.83-79.29c9-13.7,22.51-29.47,29.9-34.91,11.31-8.26,24.15-10.88,37.09-7.5Z"/></g></g></svg>